<?xml version="1.0" encoding="UTF-8"?>
<svg version="1.1" viewBox="0 0 88.473 80" xmlns="http://www.w3.org/2000/svg">
 <g transform="matrix(.17837 0 0 .17837 15.162 -3.5671)">
  <path d="m-69.854 465.41c-6.5688-3.2825-9.8016-6.7303-13.073-13.943-1.9216-4.2363-2.0295-6.458-2.0503-42.222l-0.02196-37.75h93v97h-71.681zm91.854-45.415v-48.5h96v97h-96zm110 0v-48.5h96v97h-96zm110 0v-48.5h93v37.322c0 42.957-0.11521 43.705-7.9261 51.498-8.0219 8.0039-9.1566 8.1903-49.824 8.1846l-35.25-5e-3zm-327-110.5v-48h93v96h-93zm107 0v-48h96v96h-96zm292.67 32.333c-0.36667-0.36666-0.66667-21.967-0.66667-48v-47.333h97v96h-47.833c-26.308 0-48.133-0.3-48.5-0.66667zm-148.67-88.333v-48h97v96h-97zm-250.99-43.75c0.0097-37.589 0.01989-37.772 2.3758-42.831 3.1285-6.7187 8.6396-11.91 15.281-14.395 5.0505-1.8896 7.7214-2.0235 40.371-2.0235h34.962v97h-93zm106.99-10.75v-48.5h96v97h-96zm272.56-14.443-33.932-33.943 33.379-33.807c18.358-18.594 33.632-33.92 33.941-34.059 0.30934-0.13826 15.855 15.046 34.547 33.744l33.984 33.995-10.483 10.756c-22.805 23.399-56.505 57.256-56.991 57.256-0.28242 0-15.783-15.274-34.445-33.943zm-142.06-62.059-33.991-34.002 68.493-68.493 68.004 68.004-68.514 68.493z" fill="#decd87"/>
  <g stroke-width=".45255">
   <g fill="#f00">
    <path transform="translate(-85,20)" d="m237.59 102.05-33.713-33.715 68.107-68.107 67.654 67.654-33.939 33.942c-18.667 18.668-34.042 33.942-34.168 33.942-0.12569 0-15.399-15.172-33.941-33.715z"/>
    <path transform="translate(-85,20)" d="m379.9 164.52-33.923-33.618 2.709-2.8881c1.4899-1.5885 16.589-16.928 33.554-34.087l30.845-31.199 67.988 67.769-4.87 5.0059c-16.871 17.342-58.515 59.399-60.272 60.87l-2.1082 1.765z"/>
    <path transform="translate(-85,20)" d="m404.58 321.79-4.7518-0.25082-0.28102-10.182c-0.15455-5.6003-0.30729-26.932-0.33941-47.404l-0.0584-37.222h96.845v95.488l-43.332-0.0886c-23.832-0.0487-45.47-0.20145-48.083-0.33941z"/>
   </g>
   <g fill="#2ca089">
    <path transform="translate(-85,20)" d="m251.16 233.51v-47.97h96.845v95.94h-96.845z"/>
    <path transform="translate(-85,20)" d="m107.25 178.98v-48.196h95.488v96.393h-95.488z"/>
    <path transform="translate(-85,20)" d="m0.044027 211.68c0.024215-8.5249 0.19183-25.478 0.37248-37.675 0.36906-24.916 0.24491-23.973 3.9412-29.957 3.6181-5.8574 9.5127-10.291 16.233-12.211 2.4331-0.69499 6.3243-0.79277 37.448-0.94106l34.733-0.16549v96.449h-92.772z"/>
    <path transform="translate(-85,20)" d="m0 289.4v-47.744h92.772v95.488h-92.772z"/>
    <path transform="translate(-85,20)" d="m16.518 445.87c-9.2323-4.786-14.57-11.72-15.589-20.25-0.23776-1.9912-0.53017-19.454-0.64981-38.806l-0.21753-35.186h92.71v96.845l-71.276-0.0236z"/>
    <path transform="translate(-85,20)" d="m107.25 400.05v-48.423h95.488v96.845h-95.488z"/>
    <path transform="translate(-85,20)" d="m217.22 400.05v-48.423h95.488v96.845h-95.488z"/>
    <path transform="translate(-85,20)" d="m327.19 400.05v-48.423h92.772l-0.0205 24.551c-0.0113 13.503-0.20699 30.355-0.43488 37.448-0.57749 17.976-1.0596 19.655-7.5506 26.302-4.3204 4.4245-6.9193 6.0293-11.327 6.9946-4.2764 0.93652-23.251 1.5096-50.699 1.5313l-22.741 0.0179z"/>
   </g>
   <g fill="#217867">
    <path transform="translate(-85,20)" d="m107.25 289.4v-47.744h95.488v95.488h-95.488z"/>
    <path transform="translate(-85,20)" d="m107.25 178.98v-48.196h95.488v96.393h-95.488z"/>
    <path transform="translate(-85,20)" d="m0.34969 203.08c0.1679-32.785 0.71112-51.141 1.5874-53.636 1.1583-3.2986 3.5967-6.9943 6.6614-10.096 3.2946-3.3343 5.9465-5.0355 10.355-6.6424 3.5966-1.3112 5.0753-1.3644 46.101-1.6588l27.719-0.19895v96.33l-92.546 3e-4z"/>
    <path transform="translate(-85,20)" d="m0 289.4v-47.744h92.772v95.488h-92.772z"/>
    <path transform="translate(-85,20)" d="m34.394 448.04-13.803-0.23917-3.7825-2.0365c-8.8329-4.7556-13.953-11.002-15.432-18.827-0.32815-1.7359-0.60323-15.366-0.78683-38.986l-0.28228-36.317h92.465v96.845l-22.288-0.10025c-12.258-0.0551-28.499-0.20788-36.091-0.33941z"/>
    <path transform="translate(-85,20)" d="m107.25 400.05v-48.423h95.488v96.845h-95.488z"/>
    <path transform="translate(-85,20)" d="m217.22 400.05v-48.423h95.488v96.845h-95.488z"/>
   </g>
   <g fill="#2ca089">
    <path transform="translate(-85,20)" d="m327.19 400.05v-48.423h92.66l-0.18528 28.171c-0.20996 31.923-0.71347 46.337-1.7588 50.35-0.95076 3.6502-2.7306 6.2756-7.0558 10.408-4.628 4.4216-7.6174 5.8709-13.515 6.5523-3.5271 0.40752-44.899 1.2619-65.054 1.3434l-5.0912 0.0206z"/>
    <path transform="translate(-85,20)" d="m217.22 400.05v-48.423h95.488v96.845h-95.488z"/>
    <path transform="translate(-85,20)" d="m107.25 400.05v-48.423h95.488v96.845h-95.488z"/>
    <path transform="translate(-85,20)" d="m55.204 448.03-34.175-0.28265-3.7752-2.0114c-8.3387-4.4428-13.739-10.627-15.436-17.675-0.40154-1.6677-1.2714-47.326-1.3462-70.66l-0.018494-5.77h92.32v96.845l-1.6971-0.0818c-0.93338-0.045-17.076-0.20901-35.872-0.36446z"/>
    <path transform="translate(-85,20)" d="m0 289.4v-47.744h92.772v95.488h-92.772z"/>
    <path transform="translate(-85,20)" d="m107.25 289.4v-47.744h95.488v95.488h-95.488z"/>
    <path transform="translate(-85,20)" d="m0.61491 196.86c0.36642-35.832 0.79693-45.812 2.1036-48.766 2.0721-4.6842 7.2296-10.511 11.539-13.037 4.464-2.6161 6.4398-2.9811 18.326-3.3853 6.0981-0.2074 22.135-0.39031 35.638-0.40648l24.551-0.0294v95.94h-92.468z"/>
    <path transform="translate(-85,20)" d="m107.25 178.98v-48.196h95.488v96.393h-95.488z"/>
   </g>
   <g fill="#ff2a2a">
    <path transform="translate(-85,20)" d="m251.16 233.51v-47.97h96.845v95.94h-96.845z"/>
    <path transform="translate(-85,20)" d="m237.81 101.82-33.487-33.489 67.654-67.654 67.202 67.202-33.713 33.715c-18.542 18.543-33.816 33.715-33.942 33.715-0.1257 0-15.298-15.07-33.715-33.489z"/>
    <path transform="translate(-85,20)" d="m380.11 164.31-33.685-33.393 7.1182-7.421c3.915-4.0816 18.919-19.334 33.342-33.895l26.224-26.474 67.468 67.399-3.9416 4.0881c-11.261 11.679-60.592 61.487-61.633 62.228l-1.2094 0.86115z"/>
   </g>
   <g fill="#f55">
    <path transform="translate(-85,20)" d="m444.78 321.77c-24.31-0.13081-44.369-0.40751-44.576-0.61489-0.2073-0.20737-0.42826-13.343-0.49103-29.189-0.0628-15.847-0.16459-37.009-0.22627-47.027l-0.11216-18.215 96.619 1.4e-4v95.488l-3.5072-0.10157c-1.929-0.0559-23.397-0.20859-47.706-0.33941z"/>
    <path transform="translate(-85,20)" d="m251.16 233.51v-47.97h96.845v95.94h-96.845z"/>
    <path transform="translate(-85,20)" d="m380.24 164.16-33.44-33.149 4.8596-5.2043c2.6728-2.8624 17.591-18.034 33.151-33.715l28.291-28.511 66.999 66.924-1.6215 1.8368c-3.1189 3.5331-64.028 64.967-64.412 64.967-0.2132 0-15.435-14.917-33.827-33.149z"/>
    <path transform="translate(-85,20)" d="m238.04 101.6-33.26-33.263 67.202-67.202 66.749 66.749-33.487 33.489c-18.418 18.419-33.59 33.489-33.715 33.489-0.12571 0-15.196-14.968-33.489-33.263z"/>
   </g>
  </g>
 </g>
</svg>
